<svg width="250" height="228" viewBox="0 0 250 228" fill="none" xmlns="http://www.w3.org/2000/svg">
<rect width="250" height="228" fill="#F9FAFA"/>
<circle cx="75" cy="75" r="71" stroke="#1EAE3E" stroke-width="8"/>
<circle cx="172" cy="153" r="71" stroke="#1EAE3E" stroke-width="8"/>
<g filter="url(#filter0_d_745_216)">
<path d="M58 60.36C56.24 60.36 54.64 60.7867 53.2 61.64C51.76 62.44 50.5333 63.64 49.52 65.24C48.56 66.84 47.84 68.76 47.36 71C46.88 73.24 46.64 75.7733 46.64 78.6C46.64 82.44 47.0933 85.6933 48 88.36C48.9067 91.0267 50.24 93.0533 52 94.44C53.8133 95.8267 56.1067 96.52 58.88 96.52C61.1733 96.52 63.3867 96.2267 65.52 95.64C67.7067 95 69.92 94.2 72.16 93.24V104.76C69.8133 105.827 67.3867 106.6 64.88 107.08C62.3733 107.56 59.7333 107.8 56.96 107.8C51.0933 107.8 46.32 106.6 42.64 104.2C38.96 101.747 36.24 98.3333 34.48 93.96C32.72 89.5333 31.84 84.3867 31.84 78.52C31.84 74.2 32.4 70.2533 33.52 66.68C34.64 63.0533 36.2933 59.9333 38.48 57.32C40.72 54.7067 43.44 52.68 46.64 51.24C49.8933 49.8 53.6267 49.08 57.84 49.08C60.4533 49.08 63.28 49.4533 66.32 50.2C69.36 50.8933 72.0533 51.8533 74.4 53.08L70 63.96C68.08 62.9467 66.16 62.0933 64.24 61.4C62.32 60.7067 60.24 60.36 58 60.36ZM82.6681 107V49.88H97.1481V95.88H117.788V107H82.6681Z" fill="#6CAB4E"/>
</g>
<g filter="url(#filter1_d_745_216)">
<path d="M162.54 171H150.3L138.3 149.28V171H127.38V128.16H138.3V148.92L149.82 128.16H161.76L149.34 148.68L162.54 171ZM174.915 148.68L163.155 128.16H174.855L186.075 148.92V128.16H196.515V148.92L207.735 128.16H219.435L207.615 148.68L220.395 171H208.455L196.515 149.28V171H186.075V149.28L174.135 171H162.135L174.915 148.68Z" fill="#6CAB4E"/>
</g>
<path d="M140.9 194.74C140.5 195.687 140.073 196.5 139.62 197.18C139.167 197.847 138.593 198.353 137.9 198.7C137.207 199.033 136.3 199.2 135.18 199.2C134.86 199.2 134.48 199.173 134.04 199.12C133.613 199.067 133.207 198.993 132.82 198.9V195.98C133.167 196.113 133.533 196.207 133.92 196.26C134.32 196.313 134.68 196.34 135 196.34C135.347 196.34 135.633 196.28 135.86 196.16C136.087 196.027 136.267 195.86 136.4 195.66C136.547 195.46 136.66 195.247 136.74 195.02L132.22 184.72H136.12L138.02 189.86C138.113 190.1 138.193 190.34 138.26 190.58C138.34 190.82 138.413 191.06 138.48 191.3C138.547 191.54 138.6 191.787 138.64 192.04H138.74C138.793 191.787 138.853 191.533 138.92 191.28C139 191.027 139.073 190.78 139.14 190.54C139.22 190.287 139.3 190.053 139.38 189.84L141.14 184.72H145.02L140.9 194.74ZM153.313 188.02H157.273L153.373 193.28L157.573 199H153.493L149.633 193.42V199H146.033V188.02H149.633V193.34L153.313 188.02ZM165.088 187.82C166.235 187.82 167.135 188.307 167.788 189.28C168.455 190.24 168.788 191.64 168.788 193.48C168.788 194.733 168.622 195.787 168.288 196.64C167.955 197.493 167.502 198.133 166.928 198.56C166.355 198.987 165.702 199.2 164.968 199.2C164.488 199.2 164.075 199.133 163.728 199C163.382 198.867 163.102 198.7 162.888 198.5C162.675 198.287 162.488 198.073 162.328 197.86H162.208C162.235 198.113 162.262 198.38 162.288 198.66C162.315 198.94 162.328 199.24 162.328 199.56V203.8H158.728V188.02H161.648L162.148 189.42H162.328C162.502 189.127 162.708 188.86 162.948 188.62C163.188 188.38 163.482 188.187 163.828 188.04C164.188 187.893 164.608 187.82 165.088 187.82ZM163.728 190.48C163.382 190.48 163.102 190.58 162.888 190.78C162.675 190.98 162.528 191.28 162.448 191.68C162.368 192.067 162.328 192.56 162.328 193.16V193.46C162.328 194.113 162.368 194.667 162.448 195.12C162.542 195.56 162.688 195.9 162.888 196.14C163.102 196.367 163.395 196.48 163.768 196.48C164.062 196.48 164.308 196.373 164.508 196.16C164.722 195.933 164.875 195.593 164.968 195.14C165.075 194.687 165.128 194.12 165.128 193.44C165.128 192.413 165.008 191.667 164.768 191.2C164.528 190.72 164.182 190.48 163.728 190.48ZM175.918 187.8C177.238 187.8 178.264 188.133 178.998 188.8C179.744 189.453 180.118 190.427 180.118 191.72V199H177.638L176.958 197.52H176.858C176.564 197.907 176.264 198.227 175.958 198.48C175.651 198.733 175.298 198.913 174.898 199.02C174.498 199.14 174.011 199.2 173.438 199.2C172.851 199.2 172.318 199.073 171.838 198.82C171.358 198.567 170.978 198.18 170.698 197.66C170.418 197.14 170.278 196.48 170.278 195.68C170.278 194.507 170.664 193.64 171.438 193.08C172.211 192.507 173.324 192.193 174.778 192.14L176.518 192.08V191.76C176.518 191.227 176.404 190.84 176.178 190.6C175.951 190.36 175.644 190.24 175.258 190.24C174.844 190.24 174.384 190.32 173.878 190.48C173.371 190.627 172.864 190.813 172.358 191.04L171.338 188.8C171.938 188.48 172.618 188.233 173.378 188.06C174.138 187.887 174.984 187.8 175.918 187.8ZM175.718 194.04C175.064 194.067 174.598 194.22 174.318 194.5C174.051 194.767 173.918 195.133 173.918 195.6C173.918 196.013 174.011 196.313 174.198 196.5C174.398 196.687 174.651 196.78 174.958 196.78C175.398 196.78 175.771 196.613 176.078 196.28C176.384 195.933 176.538 195.467 176.538 194.88V194L175.718 194.04ZM186.156 199H182.576V188.02H186.156V199ZM180.616 185.24C180.616 184.747 180.77 184.387 181.076 184.16C181.37 183.933 181.73 183.82 182.156 183.82C182.583 183.82 182.95 183.933 183.256 184.16C183.576 184.387 183.736 184.747 183.736 185.24C183.736 185.72 183.576 186.073 183.256 186.3C182.95 186.527 182.583 186.64 182.156 186.64C181.716 186.64 181.35 186.527 181.056 186.3C180.763 186.073 180.616 185.72 180.616 185.24ZM184.996 185.24C184.996 184.747 185.15 184.387 185.456 184.16C185.763 183.933 186.13 183.82 186.556 183.82C186.983 183.82 187.35 183.933 187.656 184.16C187.976 184.387 188.136 184.747 188.136 185.24C188.136 185.72 187.983 186.073 187.676 186.3C187.37 186.527 187.003 186.64 186.576 186.64C186.136 186.64 185.763 186.527 185.456 186.3C185.15 186.073 184.996 185.72 184.996 185.24ZM192.25 188.02V192.12H195.11V188.02H198.67V199H195.11V194.62H192.25V199H188.65V188.02H192.25ZM206.23 187.8C207.55 187.8 208.577 188.133 209.31 188.8C210.057 189.453 210.43 190.427 210.43 191.72V199H207.95L207.27 197.52H207.17C206.877 197.907 206.577 198.227 206.27 198.48C205.963 198.733 205.61 198.913 205.21 199.02C204.81 199.14 204.323 199.2 203.75 199.2C203.163 199.2 202.63 199.073 202.15 198.82C201.67 198.567 201.29 198.18 201.01 197.66C200.73 197.14 200.59 196.48 200.59 195.68C200.59 194.507 200.977 193.64 201.75 193.08C202.523 192.507 203.637 192.193 205.09 192.14L206.83 192.08V191.76C206.83 191.227 206.717 190.84 206.49 190.6C206.263 190.36 205.957 190.24 205.57 190.24C205.157 190.24 204.697 190.32 204.19 190.48C203.683 190.627 203.177 190.813 202.67 191.04L201.65 188.8C202.25 188.48 202.93 188.233 203.69 188.06C204.45 187.887 205.297 187.8 206.23 187.8ZM206.03 194.04C205.377 194.067 204.91 194.22 204.63 194.5C204.363 194.767 204.23 195.133 204.23 195.6C204.23 196.013 204.323 196.313 204.51 196.5C204.71 196.687 204.963 196.78 205.27 196.78C205.71 196.78 206.083 196.613 206.39 196.28C206.697 195.933 206.85 195.467 206.85 194.88V194L206.03 194.04Z" fill="#0DFF34"/>
<circle cx="74.5" cy="75.5" r="64" stroke="#13DB1B"/>
<circle cx="171.5" cy="153.5" r="64" stroke="#13DB1B"/>
<defs>
<filter id="filter0_d_745_216" x="31.8398" y="49.08" width="94.9482" height="66.72" filterUnits="userSpaceOnUse" color-interpolation-filters="sRGB">
<feFlood flood-opacity="0" result="BackgroundImageFix"/>
<feColorMatrix in="SourceAlpha" type="matrix" values="0 0 0 0 0 0 0 0 0 0 0 0 0 0 0 0 0 0 127 0" result="hardAlpha"/>
<feOffset dx="5" dy="4"/>
<feGaussianBlur stdDeviation="2"/>
<feComposite in2="hardAlpha" operator="out"/>
<feColorMatrix type="matrix" values="0 0 0 0 0 0 0 0 0 0 0 0 0 0 0 0 0 0 0.25 0"/>
<feBlend mode="normal" in2="BackgroundImageFix" result="effect1_dropShadow_745_216"/>
<feBlend mode="normal" in="SourceGraphic" in2="effect1_dropShadow_745_216" result="shape"/>
</filter>
<filter id="filter1_d_745_216" x="127.38" y="128.16" width="102.015" height="50.84" filterUnits="userSpaceOnUse" color-interpolation-filters="sRGB">
<feFlood flood-opacity="0" result="BackgroundImageFix"/>
<feColorMatrix in="SourceAlpha" type="matrix" values="0 0 0 0 0 0 0 0 0 0 0 0 0 0 0 0 0 0 127 0" result="hardAlpha"/>
<feOffset dx="5" dy="4"/>
<feGaussianBlur stdDeviation="2"/>
<feComposite in2="hardAlpha" operator="out"/>
<feColorMatrix type="matrix" values="0 0 0 0 0 0 0 0 0 0 0 0 0 0 0 0 0 0 0.25 0"/>
<feBlend mode="normal" in2="BackgroundImageFix" result="effect1_dropShadow_745_216"/>
<feBlend mode="normal" in="SourceGraphic" in2="effect1_dropShadow_745_216" result="shape"/>
</filter>
</defs>
</svg>
