<svg width="30" height="20" viewBox="0 0 30 20" fill="none" xmlns="http://www.w3.org/2000/svg">
<path d="M23.2517 1.79171L15.0875 7.28867L6.7366 1.79171V1.79319L6.74669 1.80062V9.49786L14.9933 15.1137L23.2517 9.71476V1.79171Z" fill="white"/>
<path d="M25.3957 0.454571L23.2516 1.79167V9.71473L29.9983 5.24584V2.55382C29.9983 2.55382 29.1793 -1.29109 25.3957 0.454571Z" fill="white"/>
<path d="M23.2516 9.71489V19.9912H28.4226C28.4226 19.9912 29.894 19.8605 29.9999 18.4135V5.24601L23.2516 9.71489Z" fill="white"/>
<path d="M6.74677 19.9999V9.49775L6.7366 9.49032L6.74677 19.9999Z" fill="white"/>
<path d="M6.73655 1.79327L4.60426 0.463601C0.820628 -1.28206 0 2.56136 0 2.56136V5.25339L6.73655 9.49051V1.79327Z" fill="white"/>
<path d="M6.7366 1.79314V9.49038L6.74677 9.49781V1.80057L6.7366 1.79314Z" fill="white"/>
<path d="M0 5.25478V18.4222C0.10426 19.8708 1.57735 20 1.57735 20H6.74832L6.73655 9.49042L0 5.25478Z" fill="white"/>
</svg>
