<svg width="30" height="30" viewBox="0 0 30 30" fill="none" xmlns="http://www.w3.org/2000/svg">
<path fill-rule="evenodd" clip-rule="evenodd" d="M15 27.5C21.9036 27.5 27.5 21.9036 27.5 15C27.5 8.09644 21.9036 2.5 15 2.5C8.09644 2.5 2.5 8.09644 2.5 15C2.5 21.9036 8.09644 27.5 15 27.5ZM15 30C23.2843 30 30 23.2843 30 15C30 6.71573 23.2843 0 15 0C6.71573 0 0 6.71573 0 15C0 23.2843 6.71573 30 15 30ZM15 6.24998C15.6904 6.24998 16.25 6.80963 16.25 7.49998V13.75H22.5C23.1904 13.75 23.75 14.3096 23.75 15C23.75 15.6903 23.1904 16.25 22.5 16.25H16.25V22.5C16.25 23.1903 15.6904 23.75 15 23.75C14.3096 23.75 13.75 23.1903 13.75 22.5V16.25H7.5C6.80964 16.25 6.25 15.6903 6.25 15C6.25 14.3096 6.80964 13.75 7.5 13.75H13.75V7.49998C13.75 6.80963 14.3096 6.24998 15 6.24998Z" fill="white"/>
</svg>
