<svg width="21" height="21" viewBox="0 0 21 21" fill="none" xmlns="http://www.w3.org/2000/svg">
<path fill-rule="evenodd" clip-rule="evenodd" d="M6.63722 0.820002C7.70389 0.771111 8.04389 0.760002 10.76 0.760002C13.4766 0.760002 13.8161 0.771666 14.8822 0.820002C15.9472 0.868338 16.6745 1.03778 17.3105 1.285C17.9777 1.53619 18.5821 1.92977 19.0816 2.43834C19.5903 2.93782 19.9839 3.54224 20.235 4.20945C20.4822 4.84556 20.6511 5.57278 20.7 6.63722C20.7489 7.70389 20.76 8.04389 20.76 10.76C20.76 13.4761 20.7484 13.8161 20.7 14.8828C20.6516 15.9472 20.4822 16.6745 20.235 17.3105C19.9795 17.9678 19.6372 18.5261 19.0816 19.0816C18.5822 19.5903 17.9777 19.9839 17.3105 20.235C16.6745 20.4822 15.9472 20.6511 14.8828 20.7C13.8161 20.7489 13.4761 20.76 10.76 20.76C8.04389 20.76 7.70389 20.7484 6.63722 20.7C5.57278 20.6516 4.84556 20.4822 4.20945 20.235C3.55222 19.9795 2.99389 19.6372 2.43834 19.0816C1.92967 18.5822 1.53607 17.9777 1.285 17.3105C1.03778 16.6745 0.868893 15.9472 0.820002 14.8828C0.771111 13.8161 0.760002 13.4766 0.760002 10.76C0.760002 8.04334 0.771666 7.70389 0.820002 6.63778C0.868338 5.57278 1.03778 4.84556 1.285 4.20945C1.53619 3.54228 1.92977 2.93789 2.43834 2.43834C2.93781 1.92967 3.54223 1.53607 4.20945 1.285C4.84556 1.03778 5.57278 0.868893 6.63722 0.820002ZM14.8011 2.62C13.7466 2.57222 13.43 2.56167 10.76 2.56167C8.09 2.56167 7.77334 2.57222 6.71889 2.62C5.74389 2.66445 5.21445 2.82722 4.86222 2.96445C4.39556 3.14556 4.06222 3.36222 3.71222 3.71222C3.36278 4.06222 3.14556 4.39556 2.96445 4.86222C2.82722 5.21445 2.66445 5.74389 2.62 6.71889C2.57222 7.77334 2.56167 8.09 2.56167 10.76C2.56167 13.43 2.57222 13.7466 2.62 14.8011C2.66445 15.7761 2.82722 16.3055 2.96445 16.6578C3.12465 17.0922 3.38017 17.4851 3.71222 17.8078C4.03486 18.1398 4.42783 18.3954 4.86222 18.5555C5.21445 18.6928 5.74389 18.8555 6.71889 18.9C7.77334 18.9478 8.08945 18.9584 10.76 18.9584C13.4305 18.9584 13.7466 18.9478 14.8011 18.9C15.7761 18.8555 16.3055 18.6928 16.6578 18.5555C17.1245 18.3745 17.4578 18.1578 17.8078 17.8078C18.1398 17.4852 18.3954 17.0922 18.5555 16.6578C18.6928 16.3055 18.8555 15.7761 18.9 14.8011C18.9478 13.7466 18.9584 13.43 18.9584 10.76C18.9584 8.09 18.9478 7.77334 18.9 6.71889C18.8555 5.74389 18.6928 5.21445 18.5555 4.86222C18.3745 4.39556 18.1578 4.06222 17.8078 3.71222C17.4578 3.36278 17.1245 3.14556 16.6578 2.96445C16.3055 2.82722 15.7761 2.66445 14.8011 2.62ZM9.48318 13.8426C9.888 14.0104 10.3218 14.0966 10.76 14.0966C11.645 14.0966 12.4936 13.7451 13.1194 13.1194C13.7452 12.4936 14.0967 11.6449 14.0967 10.76C14.0967 9.87509 13.7452 9.02637 13.1194 8.40062C12.4936 7.77488 11.645 7.42333 10.76 7.42333C10.3218 7.42333 9.888 7.50964 9.48318 7.67732C9.07827 7.845 8.71048 8.09078 8.40065 8.40062C8.09081 8.71046 7.84503 9.07827 7.67735 9.48309C7.50967 9.88791 7.42337 10.3218 7.42337 10.76C7.42337 11.1982 7.50967 11.6321 7.67735 12.0369C7.84503 12.4417 8.09081 12.8095 8.40065 13.1194C8.71048 13.4292 9.07827 13.675 9.48318 13.8426ZM7.1255 7.12547C8.08944 6.16153 9.39682 5.61999 10.76 5.61999C12.1233 5.61999 13.4306 6.16153 14.3945 7.12547C15.3585 8.0894 15.9 9.39682 15.9 10.76C15.9 12.1232 15.3585 13.4305 14.3945 14.3945C13.4306 15.3585 12.1233 15.9 10.76 15.9C9.39682 15.9 8.08944 15.3585 7.1255 14.3945C6.16157 13.4305 5.62003 12.1232 5.62003 10.76C5.62003 9.39682 6.16157 8.0894 7.1255 7.12547ZM17.0397 6.3858C17.2675 6.15794 17.3955 5.8489 17.3955 5.52667C17.3955 5.20442 17.2675 4.89538 17.0397 4.66753C16.8118 4.43967 16.5028 4.31167 16.1805 4.31167C15.8584 4.31167 15.5493 4.43967 15.3215 4.66753C15.0935 4.89538 14.9655 5.20442 14.9655 5.52667C14.9655 5.8489 15.0935 6.15794 15.3215 6.3858C15.5493 6.61366 15.8584 6.74167 16.1805 6.74167C16.5028 6.74167 16.8118 6.61366 17.0397 6.3858Z" fill="white"/>
</svg>
